<svg width="17" height="17" viewBox="0 0 17 17" fill="none" xmlns="http://www.w3.org/2000/svg">
<g clip-path="url(#clip0_5_25)">
<path fill-rule="evenodd" clip-rule="evenodd" d="M9.25089 11.3758C9.05167 11.5748 8.78162 11.6866 8.50005 11.6866C8.21849 11.6866 7.94844 11.5748 7.74922 11.3758L3.74147 7.3695C3.54224 7.17018 3.43035 6.89988 3.43042 6.61806C3.43049 6.33625 3.5425 6.066 3.74182 5.86677C3.94114 5.66755 4.21144 5.55566 4.49326 5.55573C4.77508 5.55579 5.04532 5.66781 5.24455 5.86713L8.50005 9.12263L11.7556 5.86713C11.9559 5.67349 12.2242 5.56627 12.5028 5.56855C12.7814 5.57084 13.0479 5.68246 13.245 5.87936C13.4421 6.07627 13.554 6.3427 13.5565 6.62129C13.5591 6.89987 13.4521 7.16831 13.2586 7.36879L9.25159 11.3765L9.25089 11.3758Z" fill="white"/>
</g>
<defs>
<clipPath id="clip0_5_25">
<rect width="17" height="17" fill="white"/>
</clipPath>
</defs>
</svg>
